<?xml version="1.0" standalone="no"?>
<!DOCTYPE svg PUBLIC "-//W3C//DTD SVG 20010904//EN"
 "http://www.w3.org/TR/2001/REC-SVG-20010904/DTD/svg10.dtd">
<svg version="1.0" xmlns="http://www.w3.org/2000/svg"
 width="500.000000pt" height="500.000000pt" viewBox="0 0 500.000000 500.000000"
 preserveAspectRatio="xMidYMid meet">

<g transform="translate(0.000000,500.000000) scale(0.100000,-0.100000)"
fill="#000000" stroke="none">
<path d="M760 2500 l0 -480 1740 0 1740 0 0 480 0 480 -1740 0 -1740 0 0 -480z
m3450 0 l0 -450 -1715 0 -1715 0 0 450 0 450 1715 0 1715 0 0 -450z"/>
<path d="M850 2500 l0 -390 825 0 825 0 0 390 0 390 -825 0 -825 0 0 -390z
m887 113 c74 -49 69 -186 -9 -229 -13 -8 -46 -13 -75 -14 -61 0 -105 30 -123
86 -41 124 98 228 207 157z m-426 -43 c18 -33 37 -60 41 -60 4 0 22 27 40 60
21 38 40 60 51 60 9 0 17 -2 17 -5 0 -2 -20 -38 -45 -78 -38 -63 -45 -83 -45
-126 0 -44 -3 -51 -20 -51 -17 0 -20 7 -20 53 0 33 -7 63 -18 82 -72 118 -75
125 -55 125 13 0 30 -20 54 -60z m599 -35 c0 -106 14 -135 68 -135 56 0 72 35
72 151 0 66 3 79 16 79 14 0 15 -14 12 -106 -3 -102 -4 -107 -31 -130 -20 -17
-40 -24 -70 -24 -78 1 -97 34 -97 164 0 79 3 96 15 96 12 0 15 -17 15 -95z"/>
<path d="M1586 2574 c-61 -62 -15 -174 71 -174 69 0 112 55 99 124 -14 74
-115 104 -170 50z"/>
<path d="M3320 2632 c-73 -36 -100 -123 -60 -189 28 -46 61 -64 118 -65 92 0
146 52 144 140 -1 100 -109 161 -202 114z m105 -77 c27 -26 31 -46 14 -76 -23
-45 -103 -40 -115 7 -9 36 4 74 29 84 35 14 46 12 72 -15z"/>
<path d="M2710 2510 l0 -130 40 0 c37 0 40 2 40 29 0 30 18 41 66 41 12 0 33
12 48 26 38 38 36 95 -3 135 -28 27 -34 29 -110 29 l-81 0 0 -130z m134 54
c22 -21 4 -54 -29 -54 -22 0 -25 4 -25 35 0 28 4 35 19 35 11 0 27 -7 35 -16z"/>
<path d="M2970 2510 l0 -130 35 0 35 0 0 50 0 50 40 0 40 0 0 -50 0 -50 40 0
40 0 0 130 0 130 -40 0 -40 0 0 -45 0 -45 -40 0 -40 0 0 45 c0 45 0 45 -35 45
l-35 0 0 -130z"/>
<path d="M3570 2510 l0 -130 35 0 34 0 3 66 3 66 48 -66 c41 -55 53 -66 78
-66 l29 0 0 130 0 130 -35 0 -34 0 -3 -62 -3 -63 -48 63 c-40 51 -53 62 -78
62 l-29 0 0 -130z"/>
<path d="M3860 2510 l0 -130 90 0 90 0 0 30 c0 30 -1 30 -55 30 -48 0 -55 2
-55 20 0 17 7 20 50 20 49 0 50 1 50 30 0 29 -1 30 -50 30 -43 0 -50 3 -50 20
0 18 7 20 55 20 54 0 55 0 55 30 l0 30 -90 0 -90 0 0 -130z"/>
</g>
</svg>
